<svg viewBox="0 0 24 24" fill="none" xmlns="http://www.w3.org/2000/svg">
  <rect width="24" height="24" rx="6" fill="#00d4ff"/>
  <path d="M7 10C7 8.89543 7.89543 8 9 8H15C16.1046 8 17 8.89543 17 10V16C17 17.1046 16.1046 18 15 18H9C7.89543 18 7 17.1046 7 16V10Z" fill="white"/>
  <path d="M12 15C13.1046 15 14 14.1046 14 13C14 11.8954 13.1046 11 12 11C10.8954 11 10 11.8954 10 13C10 14.1046 10.8954 15 12 15Z" fill="#00d4ff"/>
  <path d="M9 8L10 6H14L15 8" stroke="white" stroke-width="2" stroke-linecap="round" stroke-linejoin="round"/>
</svg>
